<svg width="27" height="12" viewBox="0 0 27 12" fill="none" xmlns="http://www.w3.org/2000/svg">
<path fill-rule="evenodd" clip-rule="evenodd" d="M25 4L25.4599 4.30662C26.1097 4.73981 26.5 5.46907 26.5 6.25C26.5 7.03093 26.1097 7.76019 25.4599 8.19338L25 8.5V4ZM2 0.5H22C23.1046 0.5 24 1.39543 24 2.5V10C24 11.1046 23.1046 12 22 12H2C0.89543 12 0 11.1046 0 10V2.5C0 1.39543 0.89543 0.5 2 0.5ZM2 1.5C1.44772 1.5 1 1.94772 1 2.5V10C1 10.5523 1.44772 11 2 11H22C22.5523 11 23 10.5523 23 10V2.5C23 1.94772 22.5523 1.5 22 1.5H2Z" fill="white"/>
<path fill-rule="evenodd" clip-rule="evenodd" d="M3 2.5H18V10H3C2.44772 10 2 9.55228 2 9V3.5C2 2.94772 2.44772 2.5 3 2.5Z" fill="white"/>
</svg>
