<svg width="44" height="14" viewBox="0 0 44 14" fill="none" xmlns="http://www.w3.org/2000/svg">
<path d="M3.34988 13H5.57351V0.317383H3.3323L0.0188274 2.64648V4.72949L3.29715 2.47949H3.34988V13ZM12.86 0.0976562C10.1266 0.0976562 8.11391 1.93457 8.11391 4.49219V4.50977C8.11391 6.8916 9.83656 8.64941 12.2799 8.64941C13.9938 8.64941 15.2594 7.77051 15.7604 6.61035H15.8131C15.8131 6.75098 15.8043 6.88281 15.7955 7.01465C15.7077 9.41406 14.8551 11.3652 12.8161 11.3652C11.6823 11.3652 10.9088 10.8027 10.5661 9.93262L10.5397 9.85352H8.28969L8.30727 9.9502C8.70277 11.8662 10.4606 13.2197 12.8073 13.2197C16.0416 13.2197 17.984 10.7148 17.984 6.52246V6.50488C17.984 2.05762 15.6549 0.0976562 12.86 0.0976562ZM12.86 6.90039C11.4186 6.90039 10.3463 5.87207 10.3463 4.43066V4.41309C10.3463 3.04199 11.4801 1.95215 12.8864 1.95215C14.3102 1.95215 15.4176 3.05078 15.4176 4.45703V4.46582C15.4176 5.88086 14.3102 6.90039 12.86 6.90039ZM20.4541 4.70312C21.166 4.70312 21.7197 4.14062 21.7197 3.42871C21.7197 2.7168 21.166 2.16309 20.4541 2.16309C19.7422 2.16309 19.1797 2.7168 19.1797 3.42871C19.1797 4.14062 19.7422 4.70312 20.4541 4.70312ZM20.4541 11.1543C21.166 11.1543 21.7197 10.5918 21.7197 9.87988C21.7197 9.16797 21.166 8.61426 20.4541 8.61426C19.7422 8.61426 19.1797 9.16797 19.1797 9.87988C19.1797 10.5918 19.7422 11.1543 20.4541 11.1543ZM27.9164 13.2197C31.0189 13.2197 32.8998 10.6973 32.8998 6.66309V6.64551C32.8998 2.61133 31.0189 0.0976562 27.9164 0.0976562C24.805 0.0976562 22.933 2.61133 22.933 6.64551V6.66309C22.933 10.6973 24.805 13.2197 27.9164 13.2197ZM27.9164 11.3652C26.2025 11.3652 25.2181 9.58984 25.2181 6.66309V6.64551C25.2181 3.71875 26.2025 1.96094 27.9164 1.96094C29.6214 1.96094 30.6146 3.71875 30.6146 6.64551V6.66309C30.6146 9.58984 29.6214 11.3652 27.9164 11.3652ZM34.113 13H43.0251V11.1455H37.1101V11.0488L39.905 8.39453C42.1374 6.25 42.8318 5.23926 42.8318 3.74512V3.72754C42.8318 1.63574 41.0564 0.0976562 38.5163 0.0976562C35.9411 0.0976562 33.99 1.75879 33.99 4.0791V4.14062H36.1169V4.0791C36.1433 2.85742 37.1277 1.91699 38.5339 1.91699C39.7556 1.91699 40.6081 2.72559 40.6169 3.85938V3.87695C40.6169 4.81738 40.2566 5.45898 38.5954 7.08496L34.113 11.4531V13Z" fill="white"/>
</svg>
